<svg width="256" height="50" viewBox="0 0 256 50" fill="none" xmlns="http://www.w3.org/2000/svg">
<path d="M170.835 10C170.835 4.47715 175.072 0 180.298 0H246.537C251.763 0 256 4.47715 256 10V40C256 45.5228 251.763 50 246.537 50H180.298C175.072 50 170.835 45.5228 170.835 40V10Z" fill="url(#paint0_linear_2_7)"/>
<path d="M0 40V11.2H10.5226C10.7876 11.2 11.0841 11.2133 11.4121 11.24C11.7528 11.2533 12.0934 11.2933 12.4341 11.36C13.8598 11.5867 15.0648 12.1133 16.0489 12.94C17.0456 13.7533 17.7964 14.78 18.301 16.02C18.8183 17.26 19.077 18.6333 19.077 20.14C19.077 21.6333 18.8183 23 18.301 24.24C17.7837 25.48 17.0267 26.5133 16.03 27.34C15.0458 28.1533 13.8472 28.6733 12.4341 28.9C12.0934 28.9533 11.7528 28.9933 11.4121 29.02C11.0841 29.0467 10.7876 29.06 10.5226 29.06H2.78206V40H0ZM2.78206 26.26H10.4469C10.674 26.26 10.939 26.2467 11.2418 26.22C11.5446 26.1933 11.8411 26.1467 12.1313 26.08C13.065 25.8667 13.8283 25.46 14.4213 24.86C15.0269 24.26 15.4748 23.5467 15.765 22.72C16.0678 21.8933 16.2192 21.0333 16.2192 20.14C16.2192 19.2467 16.0678 18.3867 15.765 17.56C15.4748 16.72 15.0269 16 14.4213 15.4C13.8283 14.8 13.065 14.3933 12.1313 14.18C11.8411 14.1133 11.5446 14.0733 11.2418 14.06C10.939 14.0333 10.674 14.02 10.4469 14.02H2.78206V26.26Z" fill="black"/>
<path d="M22.8438 40V11.2H33.3664C33.6313 11.2 33.9278 11.2133 34.2559 11.24C34.5965 11.2533 34.9372 11.2933 35.2779 11.36C36.7036 11.5867 37.9085 12.1133 38.8927 12.94C39.8894 13.7533 40.6401 14.78 41.1448 16.02C41.6621 17.26 41.9207 18.6333 41.9207 20.14C41.9207 22.3133 41.3782 24.2 40.2931 25.8C39.2081 27.4 37.6562 28.4067 35.6375 28.82L34.6723 29.06H25.6258V40H22.8438ZM39.3469 40L33.972 28.28L36.6405 27.2L42.5453 40H39.3469ZM25.6258 26.26H33.2907C33.5178 26.26 33.7827 26.2467 34.0856 26.22C34.3884 26.1933 34.6849 26.1467 34.9751 26.08C35.9087 25.8667 36.6721 25.46 37.2651 24.86C37.8707 24.26 38.3186 23.5467 38.6088 22.72C38.9116 21.8933 39.063 21.0333 39.063 20.14C39.063 19.2467 38.9116 18.3867 38.6088 17.56C38.3186 16.72 37.8707 16 37.2651 15.4C36.6721 14.8 35.9087 14.3933 34.9751 14.18C34.6849 14.1133 34.3884 14.0733 34.0856 14.06C33.7827 14.0333 33.5178 14.02 33.2907 14.02H25.6258V26.26Z" fill="black"/>
<path d="M57.7561 40.6C55.0435 40.6 52.7535 39.9667 50.8861 38.7C49.0188 37.42 47.6057 35.6533 46.6468 33.4C45.6879 31.1467 45.2085 28.5467 45.2085 25.6C45.2085 22.6533 45.6879 20.0533 46.6468 17.8C47.6057 15.5467 49.0188 13.7867 50.8861 12.52C52.7535 11.24 55.0435 10.6 57.7561 10.6C60.4814 10.6 62.7714 11.24 64.6261 12.52C66.4934 13.7867 67.9066 15.5467 68.8654 17.8C69.837 20.0533 70.3227 22.6533 70.3227 25.6C70.3227 28.5467 69.837 31.1467 68.8654 33.4C67.9066 35.6533 66.4934 37.42 64.6261 38.7C62.7714 39.9667 60.4814 40.6 57.7561 40.6ZM57.7561 37.78C59.8884 37.78 61.6674 37.2667 63.0931 36.24C64.5189 35.2133 65.585 33.7867 66.2916 31.96C67.0107 30.12 67.3703 28 67.3703 25.6C67.3703 23.2 67.0107 21.0867 66.2916 19.26C65.585 17.4333 64.5189 16.0067 63.0931 14.98C61.6674 13.9533 59.8884 13.4333 57.7561 13.42C55.6239 13.42 53.8512 13.9333 52.438 14.96C51.0249 15.9867 49.9588 17.42 49.2396 19.26C48.5331 21.0867 48.1735 23.2 48.1609 25.6C48.1482 28 48.4952 30.1133 49.2018 31.94C49.9209 33.7533 50.9934 35.18 52.4191 36.22C53.8448 37.2467 55.6239 37.7667 57.7561 37.78Z" fill="black"/>
<path d="M74.1129 40V11.2H84.6355C84.9004 11.2 85.1969 11.2133 85.525 11.24C85.8656 11.2533 86.2063 11.2933 86.547 11.36C87.9727 11.5867 89.1776 12.1133 90.1617 12.94C91.1585 13.7533 91.9092 14.78 92.4139 16.02C92.9312 17.26 93.1898 18.6333 93.1898 20.14C93.1898 21.6333 92.9312 23 92.4139 24.24C91.8966 25.48 91.1396 26.5133 90.1428 27.34C89.1587 28.1533 87.9601 28.6733 86.547 28.9C86.2063 28.9533 85.8656 28.9933 85.525 29.02C85.1969 29.0467 84.9004 29.06 84.6355 29.06H76.8949V40H74.1129ZM76.8949 26.26H84.5598C84.7869 26.26 85.0518 26.2467 85.3547 26.22C85.6575 26.1933 85.954 26.1467 86.2442 26.08C87.1778 25.8667 87.9411 25.46 88.5342 24.86C89.1398 24.26 89.5877 23.5467 89.8779 22.72C90.1807 21.8933 90.3321 21.0333 90.3321 20.14C90.3321 19.2467 90.1807 18.3867 89.8779 17.56C89.5877 16.72 89.1398 16 88.5342 15.4C87.9411 14.8 87.1778 14.3933 86.2442 14.18C85.954 14.1133 85.6575 14.0733 85.3547 14.06C85.0518 14.0333 84.7869 14.02 84.5598 14.02H76.8949V26.26Z" fill="black"/>
<path d="M96.9566 40V11.2H113.99V14.02H99.7387V23.98H111.719V26.8H99.7387V37.18H113.99V40H96.9566Z" fill="black"/>
<path d="M118.544 40V11.2H129.066C129.331 11.2 129.628 11.2133 129.956 11.24C130.296 11.2533 130.637 11.2933 130.978 11.36C132.403 11.5867 133.608 12.1133 134.593 12.94C135.589 13.7533 136.34 14.78 136.845 16.02C137.362 17.26 137.621 18.6333 137.621 20.14C137.621 22.3133 137.078 24.2 135.993 25.8C134.908 27.4 133.356 28.4067 131.337 28.82L130.372 29.06H121.326V40H118.544ZM135.047 40L129.672 28.28L132.34 27.2L138.245 40H135.047ZM121.326 26.26H128.991C129.218 26.26 129.483 26.2467 129.785 26.22C130.088 26.1933 130.385 26.1467 130.675 26.08C131.609 25.8667 132.372 25.46 132.965 24.86C133.571 24.26 134.018 23.5467 134.309 22.72C134.611 21.8933 134.763 21.0333 134.763 20.14C134.763 19.2467 134.611 18.3867 134.309 17.56C134.018 16.72 133.571 16 132.965 15.4C132.372 14.8 131.609 14.3933 130.675 14.18C130.385 14.1133 130.088 14.0733 129.785 14.06C129.483 14.0333 129.218 14.02 128.991 14.02H121.326V26.26Z" fill="black"/>
<path d="M149.671 40V14.02H140.151V11.2H161.972V14.02H152.453V40H149.671Z" fill="black"/>
<path d="M165.386 40V11.2H168.168V40H165.386Z" fill="black"/>
<path d="M174.22 40V11.2H177.002V37.18H189.947V40H174.22Z" fill="black"/>
<path d="M193.552 40V11.2H196.335V40H193.552Z" fill="black"/>
<path d="M213.042 40.6C210.329 40.6 208.039 39.9667 206.172 38.7C204.305 37.42 202.892 35.6533 201.933 33.4C200.974 31.1467 200.494 28.5467 200.494 25.6C200.494 22.6533 200.974 20.0533 201.933 17.8C202.892 15.5467 204.305 13.7867 206.172 12.52C208.039 11.24 210.329 10.6 213.042 10.6C216.209 10.6 218.795 11.46 220.801 13.18C222.808 14.8867 224.183 17.18 224.927 20.06L222.088 20.84C221.508 18.56 220.467 16.7533 218.966 15.42C217.464 14.0867 215.49 13.42 213.042 13.42C210.91 13.42 209.137 13.9333 207.724 14.96C206.311 15.9867 205.245 17.42 204.525 19.26C203.819 21.0867 203.453 23.2 203.428 25.6C203.415 28 203.762 30.1133 204.469 31.94C205.188 33.7667 206.26 35.2 207.686 36.24C209.124 37.2667 210.91 37.78 213.042 37.78C215.49 37.78 217.464 37.1133 218.966 35.78C220.467 34.4333 221.508 32.6267 222.088 30.36L224.927 31.14C224.183 34.02 222.808 36.32 220.801 38.04C218.795 39.7467 216.209 40.6 213.042 40.6Z" fill="black"/>
<path d="M240.137 40.6C237.424 40.6 235.134 39.9667 233.267 38.7C231.399 37.42 229.986 35.6533 229.027 33.4C228.068 31.1467 227.589 28.5467 227.589 25.6C227.589 22.6533 228.068 20.0533 229.027 17.8C229.986 15.5467 231.399 13.7867 233.267 12.52C235.134 11.24 237.424 10.6 240.137 10.6C242.862 10.6 245.152 11.24 247.007 12.52C248.874 13.7867 250.287 15.5467 251.246 17.8C252.217 20.0533 252.703 22.6533 252.703 25.6C252.703 28.5467 252.217 31.1467 251.246 33.4C250.287 35.6533 248.874 37.42 247.007 38.7C245.152 39.9667 242.862 40.6 240.137 40.6ZM240.137 37.78C242.269 37.78 244.048 37.2667 245.474 36.24C246.899 35.2133 247.965 33.7867 248.672 31.96C249.391 30.12 249.751 28 249.751 25.6C249.751 23.2 249.391 21.0867 248.672 19.26C247.965 17.4333 246.899 16.0067 245.474 14.98C244.048 13.9533 242.269 13.4333 240.137 13.42C238.004 13.42 236.232 13.9333 234.819 14.96C233.405 15.9867 232.339 17.42 231.62 19.26C230.914 21.0867 230.554 23.2 230.541 25.6C230.529 28 230.876 30.1133 231.582 31.94C232.301 33.7533 233.374 35.18 234.8 36.22C236.225 37.2467 238.004 37.7667 240.137 37.78Z" fill="black"/>
<defs>
<linearGradient id="paint0_linear_2_7" x1="128" y1="0" x2="128" y2="50" gradientUnits="userSpaceOnUse">
<stop stop-color="#94B9FF" stop-opacity="0.55"/>
<stop offset="0.495" stop-color="#98BEFC" stop-opacity="0.57925"/>
<stop offset="1" stop-color="#CDFFD8"/>
</linearGradient>
</defs>
</svg>
